PathFileType	4	(X/Y/Z)	C:/Users/opensim2020/Desktop/walking_exp_matlab/subject01_walking10_straight_02.trc	
DataRate	CameraRate	NumFrames	NumMarkers	Units	OrigDataRate	OrigDataStartFrame	OrigNumFrames	
100.00	100.00	8	43	mm	100.00	2084	262	
Frame#	Time	LFHD			RFHD			LBHD			RBHD			C7			T10			CLAV			STRN			RBAK			LSHO			LUPA			LELB			LFRM			LWRA			LWRB			LFIN			RSHO			RUPA			RELB			RFRM			RWRA			RWRB			RFIN			LASI			RASI			LPSI			RPSI			LTHI			LKNE			LTIB			LANK			LHEE			LTOE			RTHI			RKNE			RTIB			RANK			RHEE			RTOE			*39			*40			*41			*42			
		X1	Y1	Z1	X2	Y2	Z2	X3	Y3	Z3	X4	Y4	Z4	X5	Y5	Z5	X6	Y6	Z6	X7	Y7	Z7	X8	Y8	Z8	X9	Y9	Z9	X10	Y10	Z10	X11	Y11	Z11	X12	Y12	Z12	X13	Y13	Z13	X14	Y14	Z14	X15	Y15	Z15	X16	Y16	Z16	X17	Y17	Z17	X18	Y18	Z18	X19	Y19	Z19	X20	Y20	Z20	X21	Y21	Z21	X22	Y22	Z22	X23	Y23	Z23	X24	Y24	Z24	X25	Y25	Z25	X26	Y26	Z26	X27	Y27	Z27	X28	Y28	Z28	X29	Y29	Z29	X30	Y30	Z30	X31	Y31	Z31	X32	Y32	Z32	X33	Y33	Z33	X34	Y34	Z34	X35	Y35	Z35	X36	Y36	Z36	X37	Y37	Z37	X38	Y38	Z38	X39	Y39	Z39	X40	Y40	Z40	X41	Y41	Z41	X42	Y42	Z42	X43	Y43	Z43	

66	0.650	-1047.03992	431.69394	1672.55652	-1154.32959	391.33432	1676.61951	-1083.97070	545.00842	1636.48132	-1198.73877	506.22891	1641.03052	-1117.02417	585.74353	1439.84998	-1115.91968	626.76111	1147.41895	-1108.31226	446.45776	1367.10815	-1099.77539	406.11502	1211.90625	-1189.97437	643.06616	1243.87842	-950.29272	515.01740	1401.82129	-868.26147	561.30261	1217.99438	-871.82465	580.54492	1068.20215	-845.00897	548.28326	959.31030	-858.03278	472.33661	842.29803	-838.95477	528.97327	838.12183	-826.11212	482.82852	767.89008	-1262.75830	502.28427	1390.76563	-1363.83704	546.28955	1186.76733	-1367.71179	535.45514	1062.31213	-1394.84705	484.35336	951.70062	-1371.10815	381.80362	854.84552	-1411.14380	423.14795	846.31091	-1407.44971	371.47766	777.72241	-999.88751	461.23639	942.65540	-1217.45862	460.56717	933.69281	-1051.17224	646.23987	952.06512	-1195.95056	645.46216	953.61517	-925.65002	413.27719	626.82190	-943.31671	385.25095	495.07846	-932.48987	420.54044	311.81799	-978.23199	420.12839	89.95363	-1037.34363	453.45825	53.09784	-956.09570	278.50494	66.77963	-1257.83337	538.68146	601.85541	-1226.09546	544.58673	444.20889	-1228.77734	611.76489	280.33307	-1170.28333	655.02075	80.42442	-1119.86853	706.21808	45.66871	-1168.50696	516.01312	37.87949	-1134.77197	405.42657	1711.39587	-3102.13232	1972.94385	1024.06299	-3140.71631	2012.50000	1021.92786			 
67	0.660	-1046.40564	424.89349	1671.84485	-1153.77881	384.43719	1675.86011	-1083.50879	538.26672	1636.05066	-1198.29785	499.39236	1640.54565	-1116.72986	579.39032	1439.37512	-1115.60339	620.52942	1146.95728	-1107.90894	440.14078	1366.52539	-1099.53333	399.84476	1211.32764	-1189.84473	636.82593	1243.53760	-949.93353	508.88910	1401.30273	-868.08191	555.73920	1217.48108	-871.82953	575.66028	1067.93530	-844.89819	544.07446	958.78174	-857.66827	468.87000	841.28253	-838.49152	525.58191	837.51569	-825.91235	479.97522	766.75861	-1262.45886	495.82550	1390.23816	-1363.73901	539.58344	1186.49500	-1367.74219	528.55835	1061.97876	-1394.81787	476.91763	951.56378	-1370.84265	373.95123	855.20135	-1411.01331	415.19547	846.52673	-1407.28625	363.07077	778.17200	-999.99390	454.87399	942.16260	-1217.55762	454.68701	933.10822	-1050.85608	639.94958	951.68683	-1195.59119	639.38501	953.23566	-925.62378	408.19394	625.85840	-943.45459	380.00531	494.18417	-932.50366	409.24298	310.00439	-977.90631	400.35645	88.05563	-1037.39136	432.06668	50.22825	-955.63776	257.73242	69.53967	-1257.74780	534.58600	601.54852	-1226.07458	541.79907	443.71753	-1228.93445	609.86627	280.60330	-1170.41321	654.96942	80.81944	-1119.80493	706.02399	46.27844	-1168.53943	515.94635	37.89153	-1134.22473	398.44116	1710.79932	-3101.95117	1972.99402	1023.87073	-3140.70557	2012.53564	1021.98944			 
68	0.670	-1045.80249	418.15344	1671.18433	-1153.19470	377.57217	1675.08960	-1082.96777	531.55756	1635.53381	-1197.77246	492.60785	1640.05273	-1116.28479	573.04413	1438.84546	-1115.22754	614.30316	1146.43115	-1107.46936	433.79892	1365.94104	-1099.21094	393.54901	1210.76538	-1189.63025	630.62476	1243.14490	-949.43604	502.72720	1400.70752	-867.71729	550.02209	1216.98169	-871.88654	570.40729	1067.48328	-844.75494	539.70941	958.20123	-857.29974	465.19827	840.13953	-838.60382	521.98883	836.80762	-825.81158	476.93054	765.57056	-1261.74609	489.57364	1389.86731	-1363.59119	532.90771	1186.15710	-1367.70850	521.68994	1061.63660	-1394.61133	469.45911	951.30811	-1370.48535	366.20676	855.51440	-1410.60291	407.34683	846.57715	-1407.05579	354.91147	778.71735	-1000.06329	448.29666	941.56555	-1217.59229	448.77716	932.53827	-1050.48645	633.62299	951.27283	-1195.17749	633.48566	952.85370	-925.61792	403.01160	624.83337	-943.46484	374.76538	493.35648	-932.18427	398.51846	308.51221	-977.68866	381.26318	86.79366	-1036.92700	411.91968	48.00416	-955.40015	237.93958	72.76199	-1257.65649	530.60199	601.26654	-1226.23083	539.11462	443.46271	-1228.74182	608.70929	280.66098	-1170.37085	654.49023	81.03636	-1119.74768	705.74512	47.06336	-1168.55811	515.78906	37.57497	-1133.61401	391.58209	1709.89734	-3101.96460	1973.11230	1023.43317	-3140.73657	2012.55457	1021.97809			 
69	0.680	-1045.17847	411.34418	1670.40503	-1152.37878	370.76190	1674.23633	-1082.35974	524.93506	1635.20422	-1197.05334	485.77539	1639.48792	-1115.67163	566.65240	1438.20032	-1114.79712	608.01715	1145.90466	-1106.94775	427.49185	1365.34778	-1098.80298	387.12549	1210.14575	-1189.28149	624.31134	1242.67249	-948.90649	496.42670	1400.08960	-867.35291	544.17047	1216.34143	-871.70715	565.21423	1067.03748	-844.48761	535.16876	957.62103	-856.85199	461.32959	839.04785	-838.14764	518.20947	836.14935	-825.55951	473.70779	764.41406	-1261.40662	483.03470	1389.44861	-1363.30493	526.25653	1185.79480	-1367.56006	514.82782	1061.25732	-1394.44189	462.15048	951.10205	-1370.16565	358.52490	855.74835	-1410.35083	399.50949	846.58954	-1406.69641	346.73553	778.94580	-1000.01398	441.73828	940.89789	-1217.61682	442.79529	931.85602	-1050.00073	627.17419	950.79565	-1194.66272	627.22693	952.45044	-925.52985	397.75455	623.74860	-943.41040	369.54633	492.41022	-931.82928	387.91495	307.15637	-977.22418	362.99899	86.10446	-1036.69482	392.25793	46.53799	-955.34442	218.78322	76.18775	-1257.53015	526.64026	600.91290	-1226.24109	536.27277	443.13461	-1228.87854	607.12549	280.94424	-1170.31421	654.16620	81.38593	-1119.61719	705.48041	47.68716	-1168.59631	515.76434	37.55836	-1132.73389	384.69708	1709.09766	-3101.91479	1973.13464	1023.53339	-3140.52344	2012.58069	1022.10223			 
70	0.690	-1044.34241	404.59967	1669.61902	-1151.67786	363.89099	1673.46326	-1081.68347	518.11963	1634.63147	-1196.34705	479.02829	1639.02173	-1115.05994	560.24298	1437.67847	-1114.28235	601.66425	1145.30188	-1106.27026	421.11365	1364.79639	-1098.36902	380.71097	1209.57556	-1188.85486	618.02917	1242.18066	-948.25946	490.10654	1399.44934	-866.78827	538.17615	1215.72375	-871.48401	559.78406	1066.50171	-844.14093	530.36395	956.95874	-856.35596	457.31738	837.85321	-837.58966	514.07526	835.31927	-825.18396	470.21896	763.30719	-1260.70715	476.72836	1388.95874	-1363.00928	519.62054	1185.42676	-1367.30225	507.95721	1060.85425	-1394.16248	454.86551	950.89484	-1369.72949	350.91821	855.88409	-1409.97571	391.83377	846.48560	-1406.32520	338.78717	779.24506	-999.98413	435.10080	940.11230	-1217.60596	436.74963	931.31854	-1049.43909	620.66248	950.26660	-1194.09119	621.12952	952.08704	-925.34399	392.48889	622.65808	-943.22919	364.28000	491.49585	-931.51312	377.68222	306.01028	-976.79462	345.40662	85.57259	-1036.03369	374.06213	45.34570	-955.42596	200.76395	79.56192	-1257.49414	522.69495	600.67853	-1226.34119	533.36157	442.68842	-1228.97742	605.53033	281.37720	-1170.34937	653.80719	81.80733	-1119.63245	705.63263	48.58873	-1168.68250	515.59167	37.49016	-1132.12732	377.71304	1708.32886	-3101.96851	1973.18115	1023.44604	-3140.71436	2012.59082	1022.15210			 
71	0.700	-1043.53992	397.77347	1668.89185	-1150.75134	357.08035	1672.66028	-1080.78967	511.40326	1634.10852	-1195.52625	472.28128	1638.48633	-1114.40149	553.78027	1437.08350	-1113.64893	595.31946	1144.66919	-1105.54712	414.76309	1364.12781	-1097.79614	374.27386	1208.96448	-1188.24878	611.73596	1241.57959	-947.51440	483.70993	1398.73816	-866.26532	532.05042	1215.01453	-870.99884	554.24823	1065.83154	-843.65997	525.48944	956.30859	-855.80341	453.10651	836.75586	-837.11273	510.03302	834.64026	-824.74841	466.56601	762.05206	-1260.04565	470.32138	1388.43042	-1362.54773	513.00818	1184.98962	-1366.94507	501.12454	1060.41711	-1393.80798	447.59924	950.57312	-1369.33728	343.43710	855.98419	-1409.68323	384.26917	846.57458	-1405.99915	330.92825	779.38605	-999.88470	428.34732	939.28931	-1217.49268	430.66797	930.71521	-1048.81091	614.06494	949.62848	-1193.40857	614.85242	951.57050	-925.09424	386.94055	621.51129	-942.98401	359.02792	490.57565	-931.14276	367.88651	305.04385	-976.38538	328.84143	85.40564	-1035.55859	356.73160	44.77647	-955.53284	183.70749	82.81087	-1257.32739	518.70398	600.61975	-1226.56750	530.47919	442.74268	-1229.02136	603.71338	281.65564	-1170.33203	653.44403	82.43742	-1119.61060	705.37482	49.50842	-1168.64221	515.64056	37.36367	-1131.05884	370.87418	1707.52722	-3101.91821	1973.13086	1023.50409	-3140.57153	2012.48682	1021.97260			 
72	0.710	-1042.56006	391.01862	1668.13037	-1149.75964	350.28726	1671.85620	-1079.95569	504.71942	1633.63184	-1194.53931	465.55392	1637.89392	-1113.46484	547.48450	1436.44836	-1112.97131	588.82367	1143.98511	-1104.85876	408.33884	1363.54016	-1097.23523	367.77240	1208.33984	-1187.48840	605.35925	1240.96765	-946.70026	477.25586	1398.03259	-865.52307	525.80664	1214.34094	-870.54254	548.58508	1065.39990	-843.14331	520.43195	955.52264	-855.14081	448.74435	835.51685	-836.39972	505.64783	833.78986	-824.31415	462.70523	760.86078	-1259.16553	464.00613	1387.93286	-1362.00757	506.41202	1184.55359	-1366.47119	494.30136	1059.97510	-1393.49585	440.47397	950.32007	-1368.88196	336.03113	855.98218	-1409.22534	376.82516	846.49854	-1405.48169	323.29065	779.54120	-999.72351	421.47998	938.43658	-1217.30737	424.41696	930.06799	-1048.12231	607.58557	948.93451	-1192.61084	608.63251	951.01660	-924.83356	381.59482	620.42792	-942.66595	353.52045	489.67139	-930.74371	358.18637	304.18497	-975.75677	313.33667	85.51928	-1034.69446	340.64862	44.10296	-955.60168	167.88364	86.08265	-1257.21362	514.74377	600.68536	-1226.56421	527.28510	442.28360	-1229.11255	601.93805	282.10880	-1170.48315	653.32813	83.44008	-1119.41077	705.25140	50.58548	-1168.80005	515.67706	37.53679	-1130.13879	364.01031	1706.73987	-3101.84546	1973.12012	1023.47406	-3140.71387	2012.58984	1022.03754			 
73	0.720	-1041.52502	384.35236	1667.33228	-1148.66235	343.60553	1671.13452	-1078.78406	498.18552	1633.14075	-1193.51196	458.90961	1637.35730	-1112.47827	541.04382	1435.81177	-1112.19275	582.36194	1143.27869	-1103.95020	401.90405	1362.93616	-1096.57739	361.25446	1207.77515	-1186.68994	598.94031	1240.34448	-945.78705	470.77203	1397.23206	-864.86420	519.50031	1213.51379	-870.08887	542.49921	1064.68787	-842.52679	515.16809	954.82916	-854.49146	444.19946	834.26721	-835.74512	501.14810	832.98755	-823.60992	458.68320	759.70410	-1258.38184	457.63306	1387.38647	-1361.21655	499.82092	1184.03577	-1365.94250	487.49722	1059.51306	-1392.97192	433.41074	950.09351	-1368.40515	328.70471	855.95837	-1408.90088	369.44992	846.35999	-1405.00891	315.70499	779.48602	-999.41669	414.41501	937.71564	-1217.00635	418.12546	929.50415	-1047.27344	600.70618	948.07306	-1191.75623	602.34961	950.51849	-924.38184	375.68082	619.26306	-942.35254	347.71732	488.74951	-930.38336	348.46216	303.48410	-975.06299	299.26074	85.78458	-1033.81250	325.66672	43.58155	-956.08838	153.17102	88.64776	-1257.30603	510.51642	600.67194	-1226.63599	524.01935	442.14352	-1229.13586	600.07001	282.56607	-1171.04126	653.47327	84.54115	-1119.63574	704.96796	51.68178	-1168.88635	515.57123	37.50409	-1129.08350	357.17831	1706.17224	-3101.96631	1973.15894	1023.48309	-3140.66650	2012.56323	1022.01044			 
